<?xml version="1.0"?>
<svg version="1.1" xmlns="http://www.w3.org/2000/svg" width="285" height="110" style=""><path fill="#f70004" d="M17.0849609375,91.6064453125q0-0.478515625,0.29052734375-0.76904296875t0.76904296875-0.39306640625t1.00830078125-0.13671875t1.11083984375-0.1025390625q6.8701171875-0.13671875,13.75732421875-0.2734375t13.82568359375-0.13671875q1.1962890625,0,1.8115234375,0.49560546875t0.6494140625,1.04248046875t-0.56396484375,1.04248046875t-1.89697265625,0.49560546875q-6.494140625,0-12.9541015625,0.068359375t-12.9541015625,0.068359375q-0.068359375,0-0.83740234375,0.0341796875t-1.65771484375-0.068359375t-1.62353515625-0.41015625t-0.73486328125-0.95703125z M57.337353515625,64.8779296875q0-1.6064453125,0.63232421875-2.37548828125t2.30712890625-0.76904296875q0.9912109375,0,1.86279296875,0.41015625t0.87158203125,1.7431640625q0.13671875,1.9482421875,0.13671875,4.08447265625t0.3759765625,4.05029296875q0.8544921875-1.4013671875,1.93115234375-2.802734375t2.37548828125-2.4951171875t2.8369140625-1.76025390625t3.349609375-0.66650390625q2.4609375,0,4.169921875,1.025390625t2.81982421875,2.666015625t1.6064453125,3.70849609375t0.49560546875,4.15283203125q0,3.212890625-0.97412109375,5.24658203125t-2.58056640625,3.19580078125t-3.64013671875,1.572265625t-4.08447265625,0.41015625q-1.8115234375,0-3.3837890625-0.70068359375t-2.1875-2.64892578125q0-0.546875,0.80322265625-0.68359375t1.14501953125-0.13671875q1.1279296875,0,1.6748046875,0.615234375q0.41015625,0.478515625,0.90576171875,0.97412109375t1.04248046875,0.49560546875q1.0595703125,0,2.2216796875-0.59814453125t2.13623046875-1.572265625t1.640625-2.30712890625t0.66650390625-2.734375q0-1.1962890625-0.205078125-2.9736328125t-0.70068359375-3.41796875t-1.3671875-2.8369140625t-2.20458984375-1.1962890625q-2.0166015625,0-3.64013671875,1.845703125t-2.7001953125,4.443359375t-1.6748046875,5.400390625t-0.59814453125,4.6826171875t0.2392578125,4.7509765625t0.49560546875,5.96435546875t0.49560546875,5.96435546875t0.2392578125,4.7509765625q0,0.478515625-0.39306640625,0.76904296875t-0.93994140625,0.46142578125t-1.11083984375,0.205078125t-0.83740234375,0.0341796875q-0.9228515625,0-1.93115234375-0.205078125t-1.38427734375-1.2646484375q-0.478515625-1.6748046875-0.888671875-4.76806640625t-0.73486328125-6.8359375t-0.56396484375-7.861328125t-0.41015625-7.94677734375t-0.25634765625-7.0068359375t-0.08544921875-5.05859375z M90.10439453125,67.6806640625q0-1.4013671875,0.49560546875-2.3583984375t2.10205078125-0.95703125q0.615234375,0,1.5380859375,0.18798828125t1.0595703125,0.93994140625q0.341796875,2.0166015625,0.3759765625,4.375t0.2392578125,4.443359375q0.7861328125-1.5380859375,2.0166015625-3.3154296875t2.802734375-3.28125t3.41796875-2.4951171875t3.759765625-0.9912109375q0.13671875,0,0.5126953125,0.1025390625t0.70068359375,0.29052734375t0.39306640625,0.42724609375t-0.3759765625,0.4443359375q-0.13671875,0.41015625-0.5810546875,0.49560546875t-0.7861328125,0.08544921875q-0.205078125,0-0.6494140625-0.1708984375q-2.529296875,1.3330078125-4.306640625,3.623046875t-2.9052734375,5.07568359375t-1.640625,5.87890625t-0.5126953125,6.03271484375q0,1.4697265625-0.66650390625,1.77734375t-2.13623046875,0.3076171875q-0.7861328125,0-1.65771484375-0.1708984375t-1.21337890625-1.09375q-0.615234375-1.9482421875-1.00830078125-4.4775390625t-0.59814453125-5.21240234375t-0.29052734375-5.28076171875t-0.08544921875-4.6826171875z M114.39487304688,77.2509765625q0-2.32421875,0.63232421875-4.4775390625t1.89697265625-3.84521484375t3.16162109375-2.7001953125t4.39208984375-1.00830078125q1.5380859375,0,3.40087890625,0.46142578125t3.50341796875,1.3671875t2.734375,2.30712890625t1.09375,3.212890625q0,0.8544921875-0.29052734375,1.298828125t-1.17919921875,0.4443359375l-0.3759765625-0.068359375q0.9912109375,2.666015625,1.708984375,5.46875t1.4013671875,5.60546875q0.2734375,0.546875,0.41015625,0.97412109375t0.13671875,0.83740234375q0,0.546875-0.3076171875,0.90576171875t-0.80322265625,0.52978515625t-1.025390625,0.2392578125t-0.93994140625,0.068359375q-1.4697265625,0-2.20458984375-0.5126953125t-1.0595703125-1.4013671875t-0.39306640625-1.99951171875t-0.2734375-2.23876953125q-0.41015625,1.3330078125-1.07666015625,2.59765625t-1.572265625,2.27294921875t-2.13623046875,1.6064453125t-2.7685546875,0.59814453125q-2.255859375,0-3.7939453125-1.298828125t-2.47802734375-3.19580078125t-1.3671875-4.05029296875t-0.42724609375-3.9990234375z M119.24838867187,76.7724609375q0,1.2646484375,0.1708984375,2.666015625t0.56396484375,2.7685546875t1.00830078125,2.58056640625t1.5380859375,2.13623046875q1.6748046875-1.8115234375,2.47802734375-4.4091796875t1.435546875-5.00732421875t1.435546875-4.1357421875t2.47802734375-1.72607421875q1.0595703125,0,1.77734375,0.3759765625q-0.341796875-0.8544921875-1.1279296875-1.65771484375t-1.76025390625-1.4697265625t-2.0166015625-1.09375t-1.96533203125-0.42724609375q-0.2734375,0-0.63232421875,0.08544921875t-0.56396484375,0.01708984375q-1.4013671875,0.41015625-2.30712890625,1.41845703125t-1.4697265625,2.37548828125t-0.80322265625,2.802734375t-0.2392578125,2.7001953125z M144.0515625,77.421875l0-0.9912109375q0-1.23046875,0.068359375-2.32421875q0.068359375-1.5380859375,0.068359375-2.529296875q0-0.546875,0.068359375-1.24755859375t0.341796875-1.11083984375q0.341796875-0.341796875,0.80322265625-0.70068359375t1.00830078125-0.35888671875q1.7431640625,0,2.734375,0.39306640625t1.0595703125,1.62353515625l0.13671875,1.0595703125q0.615234375-1.4697265625,1.640625-3.64013671875t2.37548828125-4.1357421875t3.0419921875-3.349609375t3.57177734375-1.38427734375q1.7431640625,0,2.87109375,1.640625t1.79443359375,4.18701171875t0.93994140625,5.673828125t0.3759765625,6.13525390625t0.13671875,5.48583984375t0.2392578125,3.74267578125q0.13671875,1.0595703125,0.46142578125,2.23876953125t0.32470703125,2.17041015625q0,0.2734375-0.39306640625,0.52978515625t-0.83740234375,0.42724609375t-0.90576171875,0.2734375t-0.66650390625,0.1025390625q-1.3330078125,0-1.89697265625-1.99951171875t-0.70068359375-5.00732421875t-0.13671875-6.51123046875t-0.2392578125-6.51123046875t-0.97412109375-5.00732421875t-2.34130859375-2.06787109375q-1.4697265625,0-3.0419921875,1.89697265625t-2.7001953125,5.04150390625q-1.09375,3.14453125-1.50390625,7.1435546875q-0.13671875,1.2646484375-0.13671875,2.529296875q0,2.7685546875,0.5810546875,5.537109375q0.068359375,0.478515625-0.39306640625,0.7177734375t-1.14501953125,0.3759765625t-1.38427734375,0.1708984375t-1.07666015625,0.0341796875q-1.3330078125,0-2.13623046875-0.93994140625t-1.24755859375-2.40966796875t-0.59814453125-3.29833984375t-0.18798828125-3.60595703125z M175.10961914062,77.2509765625q0-2.32421875,0.63232421875-4.4775390625t1.89697265625-3.84521484375t3.16162109375-2.7001953125t4.39208984375-1.00830078125q1.5380859375,0,3.40087890625,0.46142578125t3.50341796875,1.3671875t2.734375,2.30712890625t1.09375,3.212890625q0,0.8544921875-0.29052734375,1.298828125t-1.17919921875,0.4443359375l-0.3759765625-0.068359375q0.9912109375,2.666015625,1.708984375,5.46875t1.4013671875,5.60546875q0.2734375,0.546875,0.41015625,0.97412109375t0.13671875,0.83740234375q0,0.546875-0.3076171875,0.90576171875t-0.80322265625,0.52978515625t-1.025390625,0.2392578125t-0.93994140625,0.068359375q-1.4697265625,0-2.20458984375-0.5126953125t-1.0595703125-1.4013671875t-0.39306640625-1.99951171875t-0.2734375-2.23876953125q-0.41015625,1.3330078125-1.07666015625,2.59765625t-1.572265625,2.27294921875t-2.13623046875,1.6064453125t-2.7685546875,0.59814453125q-2.255859375,0-3.7939453125-1.298828125t-2.47802734375-3.19580078125t-1.3671875-4.05029296875t-0.42724609375-3.9990234375z M179.96313476562,76.7724609375q0,1.2646484375,0.1708984375,2.666015625t0.56396484375,2.7685546875t1.00830078125,2.58056640625t1.5380859375,2.13623046875q1.6748046875-1.8115234375,2.47802734375-4.4091796875t1.435546875-5.00732421875t1.435546875-4.1357421875t2.47802734375-1.72607421875q1.0595703125,0,1.77734375,0.3759765625q-0.341796875-0.8544921875-1.1279296875-1.65771484375t-1.76025390625-1.4697265625t-2.0166015625-1.09375t-1.96533203125-0.42724609375q-0.2734375,0-0.63232421875,0.08544921875t-0.56396484375,0.01708984375q-1.4013671875,0.41015625-2.30712890625,1.41845703125t-1.4697265625,2.37548828125t-0.80322265625,2.802734375t-0.2392578125,2.7001953125z M204.73212890625,69.62890625q0-0.9912109375,0.56396484375-1.298828125t1.41845703125-0.3076171875q1.4013671875,0,2.13623046875,0.52978515625t0.73486328125,1.86279296875q0,1.6064453125,0.2392578125,4.01611328125t0.70068359375,4.6826171875t1.09375,3.91357421875t1.31591796875,1.640625q1.2646484375,0,2.23876953125-1.9482421875t1.708984375-4.78515625t1.2646484375-6.10107421875t0.73486328125-5.82763671875q0.13671875-1.4013671875,0.66650390625-2.03369140625t1.93115234375-0.63232421875q1.6064453125,0,2.34130859375,1.3330078125t0.93994140625,3.28125q0.1708984375,1.6748046875,0.1708984375,3.486328125l0,0.5810546875l0,1.3671875q0,1.298828125,0.0341796875,2.32421875l0.9912109375,20.9521484375l0.13671875,3.486328125q0.068359375,0.478515625,0.1025390625,0.90576171875t0.0341796875,0.90576171875q0,1.9482421875-0.83740234375,2.51220703125t-2.71728515625,0.56396484375q-0.41015625,0-1.04248046875-0.068359375t-1.23046875-0.2734375t-1.025390625-0.56396484375t-0.42724609375-0.90576171875l0.13671875-0.341796875q0.1708984375-2.05078125,0.1708984375-4.306640625l0-0.7177734375q-0.0341796875-2.666015625-0.1708984375-5.400390625t-0.3076171875-5.46875t-0.1708984375-5.263671875q-0.478515625,1.0595703125-1.11083984375,2.1875t-1.4697265625,2.03369140625t-1.89697265625,1.50390625t-2.392578125,0.59814453125q-1.9482421875,0-3.212890625-1.025390625t-1.96533203125-2.666015625t-1.00830078125-3.67431640625t-0.41015625-4.0673828125t-0.13671875-3.87939453125t-0.2734375-3.1103515625z M233.22670898438,91.6064453125q0-0.478515625,0.29052734375-0.76904296875t0.76904296875-0.39306640625t1.00830078125-0.13671875t1.11083984375-0.1025390625q6.8701171875-0.13671875,13.75732421875-0.2734375t13.82568359375-0.13671875q1.1962890625,0,1.8115234375,0.49560546875t0.6494140625,1.04248046875t-0.56396484375,1.04248046875t-1.89697265625,0.49560546875q-6.494140625,0-12.9541015625,0.068359375t-12.9541015625,0.068359375q-0.068359375,0-0.83740234375,0.0341796875t-1.65771484375-0.068359375t-1.62353515625-0.41015625t-0.73486328125-0.95703125z"/><path fill="#" d=""/></svg>
